<svg
   xmlns="http://www.w3.org/2000/svg"
   viewBox="0 0 412.36826 1085.0736"
   height="1085.0736"
   width="412.36826"
   version="1.1"><g
     transform="matrix(1.25,0,0,-1.25,-185.62493,960.96877)"><g
       transform="matrix(0.07386521,-0.06740869,0.06740869,0.07386521,-155.96638,283.83409)"><path
         style="fill:#333333;fill-opacity:1;fill-rule:nonzero;stroke:none"
         d="M 5647.7,6.93359 C 5451.27,50.7148 5361.58,121.105 5262.21,230.309 c -24.84,27.3 -101.82,77.675 -177,89.851 -37.58,6.086 -99.39,67.973 -152.69,157.746 -106.6,179.543 -147.84,179.567 -218.15,213.567 -140.63,68 -237.63,85.039 -293.4,102.05 -55.77,17.012 -89.72,29.161 -123.64,82.543 -33.92,53.379 -58.17,67.946 -118.78,104.364 -121.22,72.84 -138.21,58.3 -176.97,131.08 -77.52,145.57 -145.41,169.87 -198.74,218.41 -53.33,48.54 -128.43,184.41 -181.73,274.18 -26.65,44.88 -50.88,80.07 -94.5,131.03 -43.63,50.96 -203.5,361.51 -278.61,497.37 -37.54,67.94 -84.77,174.68 -145.38,211.1 -30.31,18.21 -152.67,198.98 -189.01,262.06 -109.03,189.25 -145.39,211.1 -225.41,242.68 -40.01,15.79 -92.14,38.86 -121.22,72.84 -14.54,16.98 -29.09,33.97 -63.03,46.12 -67.9,24.29 -208.5,133.52 -482.39,405.34 -33.93,32.76 -82.41,82.51 -116.38,53.43 -29.14,-48.49 -36.61,-349.23 -9.97,-414.73 26.64,-65.5 79.99,-72.81 130.93,-70.42 101.86,4.79 135.81,-7.36 21.77,-87.33 -57.02,-39.98 -94.66,-116.36 -179.57,-147.83 -17.01,-55.77 -65.53,-67.87 -113.99,2.5 -7.28,-12.12 -63.08,-36.34 -89.77,-53.3 -53.38,-33.92 -84.88,9.75 -26.64,65.5 29.12,27.87 -60.58,77.65 -106.65,97.08 -230.35,97.16 -293.22,390.67 -300.4,543.47 -7.18,152.8 7.38,177.04 36.52,225.53 9.75,84.89 87.54,351.62 90.03,465.62 1.25,56.99 -4.81,60.63 -46.01,101.89 -82.41,82.51 -135.66,254.75 -133.17,368.74 2.5,113.99 -70.26,116.46 -99.34,150.43 -203.58,237.82 -181.783,191.72 -186.568,293.59 -2.395,50.93 -19.329,118.85 -33.872,135.84 -14.539,16.99 -24.242,14.57 -16.957,26.69 7.282,12.12 -60.613,36.42 -72.734,43.7 -135.789,48.6 -121.223,72.84 -135.766,89.83 -218.117,254.8 -225.296,407.6 -344.101,470.74 -346.7033,191.82 -288.199344,659.87 -242.0509,764.13 23.0742,52.14 155.2969,121.17 184.4339,169.66 29.136,48.49 101.922,87.25 152.855,89.64 203.735,9.58 329.82,-41.43 392.801,-170.02 62.977,-128.58 -43.809,-237.66 -94.637,-75.13 -50.832,162.54 -75.074,177.1 -189.094,138.37 -55.796,-24.22 -82.484,-41.18 -87.351,-63.01 -9.727,-43.64 -7.309,-53.35 -72.809,-79.98 -131.004,-53.28 -169.894,-186.65 -126.324,-320.07 21.801,-46.1 14.594,65.47 36.418,60.61 43.652,-9.73 65.399,-138.29 75.051,-218.33 92.086,-121.33 206.101,-82.59 208.625,72.63 2.551,196.45 53.457,157.61 249.961,237.52 32.754,13.32 55.801,24.22 75.23,70.29 19.434,46.07 87.356,63.01 116.41,-12.2 29.059,-75.2 43.599,-92.19 104.209,-128.61 60.61,-36.42 138.16,-140.76 167.21,-215.96 29.06,-75.2 63.01,-87.35 143.03,-118.94 80.01,-31.57 152.72,-116.51 218.12,-254.79 65.39,-138.29 99.34,-150.44 218.14,-213.57 61.82,-41.27 67.9,-24.3 65.45,-55.83 -2.44,-31.52 36.34,-63.08 79.97,-114.04 43.62,-50.96 43.59,-92.19 -24.3,-67.89 96.93,-140.74 143.02,-118.94 99.4,-67.98 -14.54,16.99 41.26,41.21 72.76,-2.47 293.66,310.26 332.5,361.17 330.11,412.1 -1.2,25.47 53.37,33.92 75.2,29.06 21.83,-4.87 109.15,16.91 162.56,92.06 53.4,75.15 312.96,150.18 422.09,125.85 109.13,-24.32 286.09,-155.4 259.32,-296.05 -26.76,-140.66 -26.87,-305.58 -150.64,-429.2 l 99.45,14.49 c -104.5,-324.93 -160.29,-349.15 -232.98,-222.99 -72.68,126.17 -84.75,215.92 -67.71,312.92 8.52,48.5 12.18,75.18 -31.5,43.67 -87.35,-63 -169.97,-310.33 -165.21,-453.43 2.39,-50.94 12.04,-130.98 -80.15,-174.58 -92.19,-43.59 -121.33,-92.08 -41.41,-288.59 26.64,-65.5 41.18,-82.49 206,-247.52 -126.06,92.25 -143.05,77.71 -41.29,-82.43 179.37,-182.02 615.63,-650.39 841.07,-851.83 112.71,-100.73 247.17,-330.01 247.07,-494.93 -0.11,-164.93 382.75,-708.45 392.38,-829.72 9.62,-121.28 48.41,-152.83 94.46,-213.49 46.04,-60.67 172.13,-111.68 225.43,-201.45 16.96,-26.69 43.59,-92.19 186.67,-128.66 43.65,-9.73 84.88,-9.76 92.08,-121.33 7.21,-111.57 94.51,-131.03 155.12,-167.45 181.83,-109.253 390.22,-407.702 399.83,-570.206 -19.44,-46.071 150.17,-312.969 230.18,-344.547 40.01,-15.793 36.32,-104.3167 2.35,-133.3987 -16.99,-14.5391 -92.2,-43.59768 -75.21,-29.05471" /><path
         style="fill:#ffffff;fill-opacity:1;fill-rule:nonzero;stroke:none"
         d="m 5240.59,565.023 c -118.67,269.29 -225.35,325.141 -409.6,444.097 -58.19,26.72 -164.79,206.26 -278.78,208.76 -82.47,0.05 -235.19,116.57 -327.28,237.89 -92.08,121.33 -208.44,215.99 -331.95,504.68 -123.51,288.7 -264.22,233.01 -474.87,788.55 -36.32,104.31 -126.01,174.7 -273.9,271.81 -147.88,97.11 -147.85,138.34 -181.75,232.95 -33.9,94.61 -53.25,172.23 -118.73,186.83 -65.47,14.59 -223.09,68.05 -751.52,534.05 -92.11,80.09 -126.01,174.7 0.21,329.85 252.44,310.28 347.04,344.18 378.52,259.27 31.48,-84.9 227.67,-499.76 542.82,-730.37 126.06,-92.25 9.62,-121.28 116.28,-218.36 106.65,-97.08 203.58,-237.81 341.81,-254.88 l 84.8,-133.45 c 174.5,-203.84 169.69,-143.2 247.03,-577.39 26.58,-147.96 70.12,-322.61 171.94,-400.29 50.91,-38.84 72.71,-84.93 130.85,-194.11 213.15,-441.55 346.42,-645.37 770.69,-900.3 290.93,-174.805 412.08,-371.337 436.22,-550.829 24.14,-179.492 -3.75,-170.984 -72.79,-38.758" /><path
         style="fill:#ffffff;fill-opacity:1;fill-rule:nonzero;stroke:none"
         d="m 5136.2,405.016 c -89.72,29.16 -223.01,191.742 -264.19,274.23 -41.18,82.488 -140.55,191.692 -579.39,422.384 -94.56,48.56 -162.43,114.09 -264.19,274.23 -101.77,160.14 -719.68,1026.38 -768.09,1179.21 -24.21,76.41 -123.64,82.54 -157.59,94.69 -33.95,12.15 -77.57,63.1 -96.95,99.5 -77.52,145.57 -317.52,322.77 -419.34,400.45 -24.24,14.56 -29.03,116.43 -460.53,441.7 -215.76,162.64 -12,213.44 70.41,130.93 41.21,-41.26 143.05,-77.7 210.92,-143.23 746.55,-720.81 942.95,-805.82 1005.89,-996.25 62.94,-190.43 106.49,-365.08 307.65,-593.19 21.81,-25.48 94.56,-48.57 176.91,-213.54 60.59,-77.65 220.47,-388.2 336.82,-482.86 232.72,-189.33 293.33,-225.75 416.97,-308.29 237.6,-126.269 327.27,-237.89 508.97,-553.3 21.8,-46.098 65.45,-55.825 -24.27,-26.664" /><path
         style="fill:#ffffff;fill-opacity:1;fill-rule:nonzero;stroke:none"
         d="m 1475.72,3264.4 c -43.57,133.42 -14.38,264.37 9.94,373.5 -36.36,42.47 60.69,87.27 2.52,155.22 -58.16,67.95 -33.73,342 325.56,885.05 -24.24,14.57 26.74,99.42 -46.02,101.89 -29.11,-7.26 -41.23,0.03 -53.33,48.55 4.87,21.82 2.45,31.52 -31.52,2.44 -33.98,-29.08 -60.61,36.42 -12.07,89.75 -48.44,111.59 -26.59,147.96 111.75,295.82 69.17,73.93 111.6,48.43 135.82,-7.36 -4.89,-63.06 58.14,-109.18 55.67,-181.94 -7.31,-53.36 82.41,-82.52 84.88,-9.76 2.47,72.76 55.9,189.15 189.32,232.72 26.69,16.96 41.26,41.2 34.03,111.54 179.57,147.84 235.42,254.52 262.11,271.48 2.37,-92.17 140.68,14.46 211.07,104.15 70.39,89.7 150.41,58.12 169.74,-60.74 9.65,-80.04 -7.37,-135.81 -206.39,-370.94 -63.11,-77.58 -75.34,-235.22 -70.6,-419.55 2.36,-92.16 7.18,-152.8 -58.33,-179.43 -31.54,-18.18 -92.11,80.09 -94.48,172.25 2.45,31.53 -36.34,63.09 -274.18,-181.73 -123.77,-123.61 -123.77,-123.61 -116.54,-193.95 7.24,-70.34 -65.55,-109.1 -186.85,-159.95 -60.65,-25.43 -77.65,-60.59 -75.26,-111.52 2.42,-9.71 14.55,-16.99 -14.59,-65.48 -29.13,-48.49 -21.88,-77.6 43.55,-174.65 16.96,-26.69 48.43,-111.6 48.41,-152.83 2.41,-9.7 -138.29,-65.4 -140.81,-220.62 -0.06,-82.46 31.45,-126.14 -29.24,-213.41 -60.69,-87.27 -58.3,-138.21 -46.23,-227.95 12.07,-89.75 -58.27,-96.99 -82.49,-41.18 -24.21,55.79 -101.87,-4.79 -145.44,128.63" /><path
         style="fill:#ffffff;fill-opacity:1;fill-rule:nonzero;stroke:none"
         d="m 1299.56,4673.64 c -43.6,92.2 -38.7,155.25 -7.13,235.27 63.17,160.03 92.35,290.98 238,492.2 38.84,50.9 75.23,70.28 60.69,87.27 -14.54,16.99 -70.34,-7.23 -296.08,-300.56 -38.84,-50.91 -82.54,-123.64 -106.89,-274 -12.18,-75.17 -55.83,-65.44 -104.29,4.92 -48.46,70.37 -50.86,121.3 -62.93,211.05 -24.133,179.49 -36.231,228 -92.032,203.78 -55.796,-24.21 -101.867,-4.78 -106.625,138.32 -2.382,71.55 -33.871,135.84 -60.507,201.34 -26.637,65.5 36.496,184.31 145.675,242.45 -24.218,55.79 -4.789,101.86 60.715,128.5 65.504,26.64 84.904,31.48 111.524,-75.26 16.93,-67.92 48.46,-70.36 63.08,36.35 21.93,160.05 -67.8,189.21 -96.9,181.96 -9.7,-2.42 -46.126,-63.03 -87.38,-104.24 -165.031,-164.82 -247.492,-164.76 -242.707,-266.63 -133.265,203.81 -104.05,375.99 -14.253,470.52 146.832,155.14 240.179,111.42 421.96,-80.3 82.41,-82.51 113.89,-167.42 155.12,-167.45 41.23,-0.02 75.15,-53.4 12.07,-89.74 l -48.54,-53.33 c -109.21,-99.37 -138.37,-189.09 -162.72,-339.45 -12.17,-75.18 55.7,-140.7 67.87,-65.52 12.18,75.18 31.58,80.01 48.57,94.55 16.99,14.54 60.63,4.82 67.95,58.17 38.86,92.14 51.01,126.08 14.67,189.17 92.24,126.06 133.47,126.03 169.79,21.72 36.31,-104.31 55.67,-181.94 128.4,-225.64 72.73,-43.7 60.55,-118.88 140.6,-109.23 80.04,9.65 118.8,-63.13 140.6,-109.23 -106.73,-26.61 -147.99,-67.82 -75.23,-70.29 -77.68,-101.81 -92.24,-126.06 -235.47,-336.97 -31.56,-38.79 -29.16,-89.72 21.75,-128.56 50.9,-38.84 55.69,-140.71 -48.65,-218.25 -52.17,-38.78 -75.26,-111.52 -140.71,-55.7 -65.44,55.83 -36.39,-19.38 -79.99,72.81" /></g></g></svg>